<svg width="56" height="72" viewBox="0 0 56 72" fill="none" xmlns="http://www.w3.org/2000/svg">
<path d="M13.5409 30.447C13.5409 21.0486 16.74 11.9284 22.614 4.58678C23.2606 3.77955 24.0803 3.12797 25.0126 2.68022C25.9448 2.23247 26.9658 2 28.0001 2C29.0343 2 30.0553 2.23247 30.9876 2.68022C31.9199 3.12797 32.7396 3.77955 33.3861 4.58678C39.2589 11.9267 42.4587 21.0468 42.4593 30.447V40.4311C42.4593 44.552 42.4593 46.6124 41.6423 48.1812C40.9571 49.4981 39.883 50.5722 38.5661 51.2574C36.9973 52.0744 34.9369 52.0744 30.816 52.0744H25.1842C21.0633 52.0744 19.0028 52.0744 17.434 51.2574C16.1171 50.5722 15.0431 49.4981 14.3578 48.1812C13.5409 46.6124 13.5409 44.552 13.5409 40.4311V30.447Z" stroke="#4D455D" stroke-width="3"/>
<path d="M30.1148 19.5411C30.1148 20.1019 29.892 20.6398 29.4954 21.0365C29.0988 21.4331 28.5609 21.6559 28.0001 21.6559C27.4392 21.6559 26.9013 21.4331 26.5047 21.0365C26.1081 20.6398 25.8853 20.1019 25.8853 19.5411C25.8853 18.9802 26.1081 18.4423 26.5047 18.0457C26.9013 17.6491 27.4392 17.4263 28.0001 17.4263C28.5609 17.4263 29.0988 17.6491 29.4954 18.0457C29.892 18.4423 30.1148 18.9802 30.1148 19.5411Z" stroke="#4D455D" stroke-width="3"/>
<path d="M42.4592 24.9631L45.5462 29.5937C52.1432 39.491 55.4435 44.436 53.3976 48.2569C51.3552 52.0741 45.4089 52.0741 33.5162 52.0741H22.4838C10.5911 52.0741 4.6448 52.0741 2.60244 48.2569C0.55647 44.436 3.85678 39.491 10.4538 29.5937L13.5408 24.9631" stroke="#4D455D" stroke-width="3"/>
<path d="M28.0002 62.9185V70.148M38.8445 62.9185V66.5333M17.1558 62.9185V66.5333" stroke="#4D455D" stroke-width="3" stroke-linecap="round"/>
</svg>
