<svg width="62" height="57" viewBox="0 0 62 57" fill="none" xmlns="http://www.w3.org/2000/svg">
<path d="M61.0786 30.1579C62.2883 28.9482 62.31 26.9631 61.1251 25.7225C60.8468 25.4285 60.5123 25.1935 60.1414 25.0314C59.7705 24.8693 59.3708 24.7834 58.966 24.7788C58.5613 24.7741 58.1597 24.8509 57.7852 25.0045C57.4107 25.1581 57.0708 25.3854 56.7859 25.6728L61.0786 30.1579ZM39.7266 42.7321C38.5169 43.9418 38.4952 45.9269 39.68 47.1676C39.9584 47.4615 40.2929 47.6965 40.6638 47.8586C41.0347 48.0207 41.4344 48.1066 41.8392 48.1113C42.2439 48.1159 42.6455 48.0391 43.02 47.8855C43.3945 47.7319 43.7343 47.5047 44.0193 47.2172L39.7266 42.7321ZM44.0193 47.2172L61.0786 30.1579L56.7859 25.6728L39.7266 42.7321L44.0193 47.2172Z" fill="#4D455D"/>
<path d="M37.2203 52.5736C37.2203 55.0301 32.7105 56.5065 25.192 55.5202C23.5419 55.3061 27.7974 54.54 28.2006 52.5736C28.5976 50.6102 29.4661 49.627 31.9568 49.627C34.4474 49.627 37.2203 50.9452 37.2203 52.5736Z" fill="#4D455D" stroke="#4D455D" stroke-width="2"/>
<path d="M17.0593 46.5254C17.8819 46.5254 18.6709 46.1986 19.2525 45.6169C19.8342 45.0352 20.161 44.2463 20.161 43.4237C20.161 42.6011 19.8342 41.8121 19.2525 41.2304C18.6709 40.6488 17.8819 40.322 17.0593 40.322V46.5254ZM43.4237 18.6102C43.4237 19.4328 43.7505 20.2217 44.3321 20.8034C44.9138 21.3851 45.7027 21.7118 46.5254 21.7118C47.348 21.7118 48.1369 21.3851 48.7186 20.8034C49.3003 20.2217 49.6271 19.4328 49.6271 18.6102H43.4237ZM15.5085 6.20339H34.1186V1.28166e-05H15.5085V6.20339ZM6.20339 31.0169V15.5085H1.28166e-05V31.0169H6.20339ZM17.0593 40.322H15.5085V46.5254H17.0593V40.322ZM43.4237 15.5085V18.6102H49.6271V15.5085H43.4237ZM1.28166e-05 31.0169C1.28166e-05 33.855 -0.0061905 36.2929 0.254351 38.2376C0.5273 40.2692 1.14454 42.2202 2.7264 43.799L7.11219 39.4132C6.87646 39.1775 6.5849 38.7556 6.4019 37.4095C6.2096 35.9796 6.20339 34.0287 6.20339 31.0169H1.28166e-05ZM15.5085 40.322C12.4967 40.322 10.5489 40.3158 9.11588 40.1235C7.76975 39.9405 7.34792 39.6489 7.11219 39.4132L2.7264 43.799C4.30826 45.3808 6.25612 45.9981 8.28773 46.271C10.2356 46.5316 12.6704 46.5254 15.5085 46.5254V40.322ZM34.1186 6.20339C37.1303 6.20339 39.0782 6.2096 40.5112 6.4019C41.8573 6.5849 42.2791 6.87646 42.5149 7.11219L46.9007 2.7264C45.3188 1.14454 43.3709 0.5273 41.3393 0.254351C39.3915 -0.0061905 36.9566 1.28166e-05 34.1186 1.28166e-05V6.20339ZM49.6271 15.5085C49.6271 12.6704 49.6333 10.2325 49.3727 8.28773C49.0998 6.25612 48.4825 4.30516 46.9007 2.7264L42.5149 7.11219C42.7506 7.34792 43.0422 7.76975 43.2252 9.11588C43.4175 10.5458 43.4237 12.4967 43.4237 15.5085H49.6271ZM15.5085 1.28166e-05C12.6704 1.28166e-05 10.2325 -0.0061905 8.28773 0.254351C6.25612 0.5273 4.30516 1.14454 2.7264 2.7264L7.11219 7.11219C7.34792 6.87646 7.76975 6.5849 9.11588 6.4019C10.5458 6.2096 12.4967 6.20339 15.5085 6.20339V1.28166e-05ZM6.20339 15.5085C6.20339 12.4967 6.2096 10.5489 6.4019 9.11588C6.5849 7.76975 6.87646 7.34792 7.11219 7.11219L2.7264 2.7264C1.14454 4.30826 0.5273 6.25612 0.254351 8.28773C-0.0061905 10.2356 1.28166e-05 12.6704 1.28166e-05 15.5085H6.20339Z" fill="#4D455D"/>
<path d="M24.8135 31.0168L18.4985 25.3035C16.3521 23.3618 15.2789 22.391 13.9514 22.3941C12.627 22.3941 11.5538 23.3649 9.41053 25.3035L3.10169 31.0168M46.5253 18.61L38.2438 14.4693C36.2526 13.4767 35.2569 12.9773 34.2178 13.1014C33.1757 13.2255 32.3506 13.9389 30.7036 15.3656L19.7671 24.8382" fill="#4D455D"/>
<path d="M24.8135 31.0168L18.4985 25.3035C16.3521 23.3618 15.2789 22.391 13.9514 22.3941C12.627 22.3941 11.5538 23.3649 9.41053 25.3035L3.10169 31.0168M46.5253 18.61L38.2438 14.4693C36.2526 13.4767 35.2569 12.9773 34.2178 13.1014C33.1757 13.2255 32.3506 13.9389 30.7036 15.3656L19.7671 24.8382" stroke="#4D455D" stroke-width="2" stroke-linecap="round" stroke-linejoin="round"/>
</svg>
