<svg width="61" height="72" viewBox="0 0 61 72" fill="none" xmlns="http://www.w3.org/2000/svg">
<path d="M2 17.1111C2 9.98622 2 6.42756 4.21378 4.21378C6.42756 2 9.98622 2 17.1111 2H43.5556C50.6804 2 54.2391 2 56.4529 4.21378C58.6667 6.42756 58.6667 9.98622 58.6667 17.1111V43.5556C58.6667 50.6804 58.6667 54.2391 56.4529 56.4529C54.2391 58.6667 50.6804 58.6667 43.5556 58.6667H17.1111C9.98622 58.6667 6.42756 58.6667 4.21378 56.4529C2 54.2391 2 50.6804 2 43.5556V17.1111Z" stroke="#4D455D" stroke-width="3"/>
<path d="M15.2222 18.9997C15.2222 17.2204 15.2222 16.3288 15.7738 15.7735C16.3291 15.2219 17.2245 15.2219 19 15.2219H41.6667C43.446 15.2219 44.3376 15.2219 44.8929 15.7735C45.4445 16.3288 45.4445 17.2204 45.4445 18.9997V28.4441C45.4445 30.2235 45.4445 31.115 44.8929 31.6704C44.3376 32.2219 43.4422 32.2219 41.6667 32.2219H19C17.2207 32.2219 16.3291 32.2219 15.7738 31.6704C15.2222 31.115 15.2222 30.2197 15.2222 28.4441V18.9997Z" fill="black" stroke="#4D455D" stroke-width="3"/>
<path d="M7.66669 58.6667H53C53 62.1876 53 63.9481 52.4258 65.3345C52.0461 66.2518 51.4893 67.0853 50.7873 67.7873C50.0853 68.4894 49.2518 69.0461 48.3345 69.4259C46.948 70.0001 45.1876 70.0001 41.6667 70.0001H19C15.4791 70.0001 13.7187 70.0001 12.3322 69.4259C11.4149 69.0461 10.5814 68.4894 9.87942 67.7873C9.1774 67.0853 8.62062 66.2518 8.24091 65.3345C7.66669 63.9481 7.66669 62.1876 7.66669 58.6667Z" stroke="#4D455D" stroke-width="3"/>
<path d="M19 45.4445C19 46.4465 18.602 47.4073 17.8935 48.1158C17.1851 48.8243 16.2242 49.2223 15.2222 49.2223C14.2203 49.2223 13.2594 48.8243 12.5509 48.1158C11.8425 47.4073 11.4445 46.4465 11.4445 45.4445C11.4445 44.4426 11.8425 43.4817 12.5509 42.7732C13.2594 42.0648 14.2203 41.6667 15.2222 41.6667C16.2242 41.6667 17.1851 42.0648 17.8935 42.7732C18.602 43.4817 19 44.4426 19 45.4445Z" fill="black"/>
<path d="M34.1111 45.4443H47.3333" stroke="#4D455D" stroke-width="3" stroke-linecap="round" stroke-linejoin="round"/>
</svg>
