<svg xmlns="http://www.w3.org/2000/svg" viewBox="0 0 559.29 474.27"><defs><style>.cls-1{fill:none;stroke:#000;stroke-miterlimit:10;stroke-width:28px;}</style></defs><title>Asset 1</title><g id="Layer_2" data-name="Layer 2"><g id="Graphic_element" data-name="Graphic element"><path class="cls-1" d="M474.84,353.79A223,223,0,0,1,284.59,460.27c-96.87,0-179.33-61.74-210.17-148"/><path class="cls-1" d="M61.46,237.13C61.46,117.82,155.1,20.38,272.9,14.3c133.68-6.9,244,105.87,234.22,239.38a222,222,0,0,1-5.64,36.08"/><path class="cls-1" d="M9.9,376.78,234.53,152.15c20.17-20.17,54.66-5.89,54.66,22.64v131c0,26.2-31.67,39.31-50.19,20.79h0c-13.59-13.59-4-36.83,15.26-36.83h305"/></g></g></svg>